<svg version="1.1" id="Layer_1" xmlns="http://www.w3.org/2000/svg" xmlns:xlink="http://www.w3.org/1999/xlink" x="0px" y="0px"
	 width="100%" viewBox="0 0 2000 1500" enable-background="new 0 0 2000 1500" xml:space="preserve">
<path fill="#39CCCC" opacity="1.000000" stroke="none" 
	d="
M1019.000000,1501.000000 
	C679.333435,1501.000000 340.166870,1501.000000 1.000227,1501.000000 
	C1.000152,1001.000244 1.000152,501.000488 1.000076,1.000563 
	C667.666199,1.000375 1334.332397,1.000375 2000.999023,1.000188 
	C2000.999268,500.999390 2000.999268,1000.998779 2000.999634,1500.999023 
	C1673.833374,1501.000000 1346.666626,1501.000000 1019.000000,1501.000000 
M968.787354,774.965942 
	C990.338257,805.280212 1011.931946,835.564209 1033.371338,865.957092 
	C1035.431152,868.877075 1037.552612,870.066528 1041.110352,869.908508 
	C1047.742920,869.613770 1054.397095,869.802917 1061.973633,869.759583 
	C1095.733521,869.778015 1129.493530,869.796387 1164.161621,869.773804 
	C1172.009766,869.773804 1179.857910,869.773804 1188.817139,869.773804 
	C1148.791748,815.944275 1109.615845,763.257324 1070.474731,710.617065 
	C1071.313843,709.878601 1071.525146,709.565735 1071.811401,709.464172 
	C1072.747803,709.131897 1073.704346,708.850098 1074.665649,708.595520 
	C1114.204834,698.123291 1141.690674,673.209167 1158.590942,636.687744 
	C1177.016479,596.870239 1180.578491,555.004700 1172.018066,512.198853 
	C1163.369263,468.950897 1137.991333,439.308746 1096.970825,423.293243 
	C1076.825317,415.427917 1055.708008,411.392151 1034.173096,410.187775 
	C1022.349976,409.526520 1010.346191,407.100586 998.602234,411.415863 
	C997.214539,411.925781 995.366089,411.181946 992.449402,410.368713 
	C988.484070,410.019531 984.519531,409.377960 980.553223,409.366272 
	C940.071350,409.247040 899.589294,409.230255 858.147583,409.229675 
	C850.213135,409.229675 842.278748,409.229675 834.370483,409.229675 
	C834.370483,563.121399 834.370483,716.258728 834.370483,869.829651 
	C842.846436,869.829651 850.977295,869.829651 860.030457,869.770935 
	C887.692322,869.794128 915.354248,869.817383 943.956543,869.815674 
	C951.869080,869.815674 959.781616,869.815674 968.092041,869.815674 
	C968.092041,866.938232 968.088013,864.802368 968.092712,862.666565 
	C968.157593,833.266907 968.223633,803.867249 968.787354,774.965942 
M961.580811,1138.495605 
	C961.580811,1122.750732 961.580811,1107.005859 961.580811,1090.828003 
	C977.159973,1090.828003 991.953430,1090.941040 1006.742737,1090.744995 
	C1010.250671,1090.698486 1011.986206,1091.817505 1013.444031,1095.032471 
	C1021.823242,1113.510742 1030.425903,1131.888062 1039.052246,1150.252930 
	C1039.757812,1151.755127 1041.159302,1153.996216 1042.318481,1154.047241 
	C1050.039551,1154.386719 1057.782715,1154.223267 1066.041626,1154.223267 
	C1055.913208,1132.432617 1046.185425,1111.503662 1036.377930,1090.403076 
	C1037.785645,1089.876709 1038.684570,1089.428101 1039.636230,1089.201538 
	C1053.590210,1085.880371 1062.014404,1076.721802 1063.380859,1062.917725 
	C1064.683960,1049.754028 1064.602539,1036.273315 1063.394165,1023.091187 
	C1062.187134,1009.922241 1054.350708,1000.629272 1041.141724,997.199036 
	C1035.730591,995.793823 1029.972656,995.203613 1024.365601,995.161499 
	C997.384827,994.958740 970.401672,995.064819 943.419312,995.082275 
	C942.001953,995.083191 940.584717,995.276550 939.188477,995.378723 
	C939.188477,1048.486328 939.188477,1101.207153 939.188477,1153.853149 
	C946.771790,1153.853149 954.005493,1153.853149 961.580627,1153.853149 
	C961.580627,1148.787842 961.580627,1144.140015 961.580811,1138.495605 
z"/>
<path fill="#0174D9" opacity="1.000000" stroke="none" 
	d="
M859.107239,409.184814 
	C899.589294,409.230255 940.071350,409.247040 980.553223,409.366272 
	C984.519531,409.377960 988.484070,410.019531 992.354858,410.637878 
	C991.144531,407.109009 994.068420,408.176941 995.644531,408.370880 
	C1001.215576,409.056427 1006.733643,410.530029 1012.309570,410.750977 
	C1028.572876,411.395233 1044.344360,414.617706 1059.842773,419.239746 
	C1104.484253,432.552979 1134.597168,460.720398 1145.630981,506.604370 
	C1155.794922,548.870178 1152.871826,590.733826 1136.018311,630.968384 
	C1119.527100,670.338440 1091.401123,697.423096 1049.379150,708.670410 
	C1047.998535,709.039856 1046.642090,709.500000 1045.007324,709.999451 
	C1046.199463,711.672852 1047.044922,712.905579 1047.936279,714.104187 
	C1077.150391,753.385742 1106.394653,792.644958 1135.571777,831.953857 
	C1144.889404,844.507080 1154.031128,857.190796 1163.253418,869.814819 
	C1129.493530,869.796387 1095.733521,869.778015 1061.379150,869.471924 
	C1043.666260,845.024902 1026.582031,820.841003 1009.418518,796.713684 
	C995.734619,777.477783 981.953674,758.310791 968.096558,738.777954 
	C959.973694,727.138977 951.970215,715.835327 943.966797,704.531677 
	C943.649902,704.652100 943.333008,704.772583 943.016113,704.893066 
	C943.016113,759.875549 943.016113,814.858093 943.016113,869.840576 
	C915.354248,869.817383 887.692322,869.794128 859.565857,869.347900 
	C859.103210,715.678162 859.105225,562.431458 859.107239,409.184814 
M985.955505,661.271179 
	C1020.552734,658.879028 1043.956299,640.647644 1057.415771,609.479736 
	C1069.306763,581.943848 1069.339600,553.399414 1061.300903,524.874329 
	C1054.555542,500.938721 1038.824097,485.566315 1014.455688,479.926147 
	C1005.102783,477.761383 995.422607,477.010193 985.165283,475.266205 
	C979.453552,475.277100 973.741760,475.287964 967.068115,475.324310 
	C959.135559,475.324310 951.203003,475.324310 943.358154,475.324310 
	C943.358154,537.838623 943.358154,599.587036 943.358154,661.766052 
	C951.812622,661.766052 959.947266,661.766052 968.983276,661.996399 
	C974.383850,661.813354 979.784424,661.630371 985.955505,661.271179 
z"/>
<path fill="#FCFEFE" opacity="1.000000" stroke="none" 
	d="
M1163.707520,869.794312 
	C1154.031128,857.190796 1144.889404,844.507080 1135.571777,831.953857 
	C1106.394653,792.644958 1077.150391,753.385742 1047.936279,714.104187 
	C1047.044922,712.905579 1046.199463,711.672852 1045.007324,709.999451 
	C1046.642090,709.500000 1047.998535,709.039856 1049.379150,708.670410 
	C1091.401123,697.423096 1119.527100,670.338440 1136.018311,630.968384 
	C1152.871826,590.733826 1155.794922,548.870178 1145.630981,506.604370 
	C1134.597168,460.720398 1104.484253,432.552979 1059.842773,419.239746 
	C1044.344360,414.617706 1028.572876,411.395233 1012.309570,410.750977 
	C1006.733643,410.530029 1001.215576,409.056427 995.644531,408.370880 
	C994.068420,408.176941 991.144531,407.109009 992.995850,410.963165 
	C995.366089,411.181946 997.214539,411.925781 998.602234,411.415863 
	C1010.346191,407.100586 1022.349976,409.526520 1034.173096,410.187775 
	C1055.708008,411.392151 1076.825317,415.427917 1096.970825,423.293243 
	C1137.991333,439.308746 1163.369263,468.950897 1172.018066,512.198853 
	C1180.578491,555.004700 1177.016479,596.870239 1158.590942,636.687744 
	C1141.690674,673.209167 1114.204834,698.123291 1074.665649,708.595520 
	C1073.704346,708.850098 1072.747803,709.131897 1071.811401,709.464172 
	C1071.525146,709.565735 1071.313843,709.878601 1070.474731,710.617065 
	C1109.615845,763.257324 1148.791748,815.944275 1188.817139,869.773804 
	C1179.857910,869.773804 1172.009766,869.773804 1163.707520,869.794312 
z"/>
<path fill="#E8C12E" opacity="1.000000" stroke="none" 
	d="
M858.627441,409.207245 
	C859.105225,562.431458 859.103210,715.678162 859.104675,869.377197 
	C850.977295,869.829651 842.846436,869.829651 834.370483,869.829651 
	C834.370483,716.258728 834.370483,563.121399 834.370483,409.229675 
	C842.278748,409.229675 850.213135,409.229675 858.627441,409.207245 
z"/>
<path fill="#E7C130" opacity="1.000000" stroke="none" 
	d="
M961.580688,1138.993896 
	C961.580627,1144.140015 961.580627,1148.787842 961.580627,1153.853149 
	C954.005493,1153.853149 946.771790,1153.853149 939.188477,1153.853149 
	C939.188477,1101.207153 939.188477,1048.486328 939.188477,995.378723 
	C940.584717,995.276550 942.001953,995.083191 943.419312,995.082275 
	C970.401672,995.064819 997.384827,994.958740 1024.365601,995.161499 
	C1029.972656,995.203613 1035.730591,995.793823 1041.141724,997.199036 
	C1054.350708,1000.629272 1062.187134,1009.922241 1063.394165,1023.091187 
	C1064.602539,1036.273315 1064.683960,1049.754028 1063.380859,1062.917725 
	C1062.014404,1076.721802 1053.590210,1085.880371 1039.636230,1089.201538 
	C1038.684570,1089.428101 1037.785645,1089.876709 1036.377930,1090.403076 
	C1046.185425,1111.503662 1055.913208,1132.432617 1066.041626,1154.223267 
	C1057.782715,1154.223267 1050.039551,1154.386719 1042.318481,1154.047241 
	C1041.159302,1153.996216 1039.757812,1151.755127 1039.052246,1150.252930 
	C1030.425903,1131.888062 1021.823242,1113.510742 1013.444031,1095.032471 
	C1011.986206,1091.817505 1010.250671,1090.698486 1006.742737,1090.744995 
	C991.953430,1090.941040 977.159973,1090.828003 961.580811,1090.828003 
	C961.580811,1107.005859 961.580811,1122.750732 961.580688,1138.993896 
M983.500122,1067.994385 
	C997.637939,1067.977661 1011.778076,1068.112793 1025.912842,1067.894409 
	C1036.541626,1067.730225 1041.038208,1063.336060 1041.690918,1052.737305 
	C1042.027710,1047.267700 1041.904419,1041.763672 1041.842285,1036.276978 
	C1041.685547,1022.439758 1037.291382,1018.023987 1023.550232,1017.985107 
	C1004.422485,1017.930908 985.294495,1017.964111 966.166565,1017.983521 
	C964.737183,1017.984924 963.307922,1018.175659 961.877808,1018.278442 
	C961.877808,1034.992432 961.877808,1051.228394 961.877808,1067.994385 
	C968.941711,1067.994385 975.720886,1067.994385 983.500122,1067.994385 
z"/>
<path fill="#FEFEFF" opacity="1.000000" stroke="none" 
	d="
M943.486328,869.828125 
	C943.016113,814.858093 943.016113,759.875549 943.016113,704.893066 
	C943.333008,704.772583 943.649902,704.652100 943.966797,704.531677 
	C951.970215,715.835327 959.973694,727.138977 968.054932,739.237305 
	C968.184998,751.510498 968.237244,762.989014 968.289490,774.467590 
	C968.223633,803.867249 968.157593,833.266907 968.092712,862.666565 
	C968.088013,864.802368 968.092041,866.938232 968.092041,869.815674 
	C959.781616,869.815674 951.869080,869.815674 943.486328,869.828125 
z"/>
<path fill="#E7C130" opacity="1.000000" stroke="none" 
	d="
M968.538452,774.716797 
	C968.237244,762.989014 968.184998,751.510498 968.174316,739.572571 
	C981.953674,758.310791 995.734619,777.477783 1009.418518,796.713684 
	C1026.582031,820.841003 1043.666260,845.024902 1060.913452,869.487549 
	C1054.397095,869.802917 1047.742920,869.613770 1041.110352,869.908508 
	C1037.552612,870.066528 1035.431152,868.877075 1033.371338,865.957092 
	C1011.931946,835.564209 990.338257,805.280212 968.538452,774.716797 
z"/>
<path fill="#3ACCCC" opacity="1.000000" stroke="none" 
	d="
M968.030029,475.298859 
	C973.741760,475.287964 979.453552,475.277100 985.087036,475.527710 
	C980.994446,475.789215 976.980225,475.789215 972.965942,475.789215 
	C976.049561,477.065887 979.149170,477.529205 982.230652,478.091187 
	C1009.932861,483.143127 1029.045044,498.258209 1036.546997,525.939514 
	C1043.768921,552.588196 1043.891479,579.338440 1033.959229,605.424744 
	C1023.198669,633.686523 1003.858032,652.851868 973.632996,659.696899 
	C972.492188,659.955261 971.357544,660.241089 970.220032,660.514160 
	C970.258911,660.825256 970.297729,661.136292 970.336548,661.447388 
	C975.286072,661.447388 980.235535,661.447388 985.184998,661.447388 
	C979.784424,661.630371 974.383850,661.813354 968.564941,661.431519 
	C968.127258,653.550720 968.093872,646.234741 968.090698,638.918762 
	C968.067078,584.378784 968.049500,529.838806 968.030029,475.298859 
z"/>
<path fill="#E7C130" opacity="1.000000" stroke="none" 
	d="
M985.570251,661.359253 
	C980.235535,661.447388 975.286072,661.447388 970.336548,661.447388 
	C970.297729,661.136292 970.258911,660.825256 970.220032,660.514160 
	C971.357544,660.241089 972.492188,659.955261 973.632996,659.696899 
	C1003.858032,652.851868 1023.198669,633.686523 1033.959229,605.424744 
	C1043.891479,579.338440 1043.768921,552.588196 1036.546997,525.939514 
	C1029.045044,498.258209 1009.932861,483.143127 982.230652,478.091187 
	C979.149170,477.529205 976.049561,477.065887 972.965942,475.789215 
	C976.980225,475.789215 980.994446,475.789215 985.450195,475.702057 
	C995.422607,477.010193 1005.102783,477.761383 1014.455688,479.926147 
	C1038.824097,485.566315 1054.555542,500.938721 1061.300903,524.874329 
	C1069.339600,553.399414 1069.306763,581.943848 1057.415771,609.479736 
	C1043.956299,640.647644 1020.552734,658.879028 985.570251,661.359253 
z"/>
<path fill="#FEFEFF" opacity="1.000000" stroke="none" 
	d="
M967.549072,475.311584 
	C968.049500,529.838806 968.067078,584.378784 968.090698,638.918762 
	C968.093872,646.234741 968.127258,653.550720 968.114319,661.316406 
	C959.947266,661.766052 951.812622,661.766052 943.358154,661.766052 
	C943.358154,599.587036 943.358154,537.838623 943.358154,475.324310 
	C951.203003,475.324310 959.135559,475.324310 967.549072,475.311584 
z"/>
<path fill="#39CCCC" opacity="1.000000" stroke="none" 
	d="
M983.000122,1067.994385 
	C975.720886,1067.994385 968.941711,1067.994385 961.877808,1067.994385 
	C961.877808,1051.228394 961.877808,1034.992432 961.877808,1018.278442 
	C963.307922,1018.175659 964.737183,1017.984924 966.166565,1017.983521 
	C985.294495,1017.964111 1004.422485,1017.930908 1023.550232,1017.985107 
	C1037.291382,1018.023987 1041.685547,1022.439758 1041.842285,1036.276978 
	C1041.904419,1041.763672 1042.027710,1047.267700 1041.690918,1052.737305 
	C1041.038208,1063.336060 1036.541626,1067.730225 1025.912842,1067.894409 
	C1011.778076,1068.112793 997.637939,1067.977661 983.000122,1067.994385 
z"/>
</svg>